<svg xmlns="http://www.w3.org/2000/svg" width="1600" height="1000" viewBox="0 0 1600 1000">
  <defs>
    <linearGradient id="b" x2="1" y2="1"><stop stop-color="#090a10"/><stop offset="1" stop-color="#231020"/></linearGradient>
    <filter id="blur"><feGaussianBlur stdDeviation="60"/></filter>
  </defs>
  <rect width="1600" height="1000" fill="url(#b)"/>
  <circle cx="1280" cy="200" r="250" fill="#de1d8d" fill-opacity=".34" filter="url(#blur)"/>
  <g stroke="#fff" stroke-opacity=".1" fill="none"><path d="M0 100H1600M0 220H1600M0 340H1600M0 460H1600M0 580H1600M0 700H1600M0 820H1600M0 940H1600"/><path d="M120 0V1000M320 0V1000M520 0V1000M720 0V1000M920 0V1000M1120 0V1000M1320 0V1000M1520 0V1000"/></g>
  <g stroke="#fff" stroke-opacity=".35" stroke-width="2"><path d="M300 600 520 420 760 530 1040 315 1300 490" fill="none"/><path d="M520 420 550 710 920 735 1040 315M760 530 920 735M1040 315 1240 720 1300 490" fill="none"/></g>
  <g fill="#0c0b10" stroke="#de1d8d" stroke-width="5"><circle cx="300" cy="600" r="28"/><circle cx="520" cy="420" r="42"/><circle cx="760" cy="530" r="30"/><circle cx="1040" cy="315" r="50"/><circle cx="1300" cy="490" r="34"/><circle cx="550" cy="710" r="25"/><circle cx="920" cy="735" r="39"/><circle cx="1240" cy="720" r="27"/></g>
  <text x="120" y="150" fill="#fff" font-family="Georgia,serif" font-size="82">Quiet Compute</text>
  <text x="126" y="202" fill="#fff" fill-opacity=".5" font-family="Arial,sans-serif" font-size="22" letter-spacing="4">SYSTEMS THAT EXPLAIN THEMSELVES</text>
  <rect x="118" y="854" width="370" height="2" fill="#de1d8d"/><text x="118" y="900" fill="#fff" fill-opacity=".52" font-family="Arial,sans-serif" font-size="19">EXAMPLE PROJECT VISUAL / 02</text>
</svg>
