<svg xmlns="http://www.w3.org/2000/svg" width="1600" height="1000" viewBox="0 0 1600 1000">
  <defs>
    <linearGradient id="bg" x2="1" y2="1"><stop stop-color="#210d19"/><stop offset="1" stop-color="#080609"/></linearGradient>
    <radialGradient id="glow"><stop stop-color="#de1d8d" stop-opacity=".65"/><stop offset="1" stop-color="#de1d8d" stop-opacity="0"/></radialGradient>
    <pattern id="grid" width="64" height="64" patternUnits="userSpaceOnUse"><path d="M64 0H0V64" fill="none" stroke="#fff" stroke-opacity=".07"/></pattern>
  </defs>
  <rect width="1600" height="1000" fill="url(#bg)"/><rect width="1600" height="1000" fill="url(#grid)"/>
  <circle cx="1200" cy="270" r="460" fill="url(#glow)"/>
  <rect x="120" y="105" width="1360" height="790" rx="28" fill="#0f0d10" fill-opacity=".78" stroke="#fff" stroke-opacity=".18"/>
  <circle cx="165" cy="148" r="8" fill="#de1d8d"/><circle cx="191" cy="148" r="8" fill="#fff" fill-opacity=".25"/><circle cx="217" cy="148" r="8" fill="#fff" fill-opacity=".25"/>
  <text x="270" y="160" fill="#fff" fill-opacity=".65" font-family="Arial,sans-serif" font-size="22" letter-spacing="4">SIGNAL ATLAS / 01</text>
  <path d="M190 626c76-27 120-108 193-92s92 146 174 109 114-284 218-258 93 289 203 256 147-205 254-145 97 132 185 79" fill="none" stroke="#de1d8d" stroke-width="8" stroke-linecap="round"/>
  <path d="M190 679c85 0 91-62 173-62s91 98 168 98 115-190 208-190 112 118 186 118 128-58 190-58 125 65 282 65" fill="none" stroke="#fff" stroke-opacity=".45" stroke-width="3"/>
  <g fill="#fff"><circle cx="383" cy="534" r="10"/><circle cx="775" cy="385" r="10"/><circle cx="1232" cy="496" r="10"/></g>
  <text x="190" y="273" fill="#fff" font-family="Georgia,serif" font-size="74">Experiments, mapped.</text>
  <text x="194" y="320" fill="#fff" fill-opacity=".52" font-family="Arial,sans-serif" font-size="24">EXAMPLE VISUAL · REPLACE WITH YOUR PROJECT</text>
</svg>
